<mxfile host="Electron" modified="2023-11-06T07:48:16.774Z" agent="Mozilla/5.0 (Windows NT 10.0; Win64; x64) AppleWebKit/537.36 (KHTML, like Gecko) draw.io/22.0.3 Chrome/114.0.5735.289 Electron/25.8.4 Safari/537.36" etag="hFx0FcvgefYhlqLGgPZb" version="22.0.3" type="device">
  <diagram name="Page-1" id="lTnBYsJN6jKlpSKZfliJ">
    <mxGraphModel dx="1594" dy="955" grid="1" gridSize="10" guides="1" tooltips="1" connect="1" arrows="1" fold="1" page="1" pageScale="1" pageWidth="827" pageHeight="1169" math="0" shadow="0">
      <root>
        <mxCell id="0" />
        <mxCell id="1" parent="0" />
        <mxCell id="brMMM7fyouTdi_pjjpxk-32" value="" style="rounded=0;whiteSpace=wrap;html=1;" vertex="1" parent="1">
          <mxGeometry x="20" y="10" width="570" height="370" as="geometry" />
        </mxCell>
        <mxCell id="brMMM7fyouTdi_pjjpxk-1" value="module.&amp;lt;ID&amp;gt;.$!$.&amp;lt;permission_node&amp;gt;" style="rounded=0;whiteSpace=wrap;html=1;" vertex="1" parent="1">
          <mxGeometry x="160" y="50" width="250" height="60" as="geometry" />
        </mxCell>
        <mxCell id="brMMM7fyouTdi_pjjpxk-2" value="Permission related to specific module" style="text;html=1;strokeColor=none;fillColor=none;align=center;verticalAlign=middle;whiteSpace=wrap;rounded=0;fontStyle=1" vertex="1" parent="1">
          <mxGeometry x="160" y="20" width="220" height="30" as="geometry" />
        </mxCell>
        <mxCell id="brMMM7fyouTdi_pjjpxk-3" value="module" style="ellipse;whiteSpace=wrap;html=1;" vertex="1" parent="1">
          <mxGeometry x="30" y="140" width="120" height="40" as="geometry" />
        </mxCell>
        <mxCell id="brMMM7fyouTdi_pjjpxk-4" value="ID of moduile" style="ellipse;whiteSpace=wrap;html=1;" vertex="1" parent="1">
          <mxGeometry x="170" y="140" width="120" height="40" as="geometry" />
        </mxCell>
        <mxCell id="brMMM7fyouTdi_pjjpxk-18" style="edgeStyle=none;rounded=0;orthogonalLoop=1;jettySize=auto;html=1;exitX=0.5;exitY=1;exitDx=0;exitDy=0;endArrow=none;endFill=0;" edge="1" parent="1" source="brMMM7fyouTdi_pjjpxk-5">
          <mxGeometry relative="1" as="geometry">
            <mxPoint x="370" y="210" as="targetPoint" />
          </mxGeometry>
        </mxCell>
        <mxCell id="brMMM7fyouTdi_pjjpxk-5" value="$!$&lt;br&gt;separator" style="ellipse;whiteSpace=wrap;html=1;" vertex="1" parent="1">
          <mxGeometry x="310" y="140" width="120" height="40" as="geometry" />
        </mxCell>
        <mxCell id="brMMM7fyouTdi_pjjpxk-21" style="edgeStyle=none;rounded=0;orthogonalLoop=1;jettySize=auto;html=1;exitX=0.5;exitY=1;exitDx=0;exitDy=0;entryX=0.5;entryY=0;entryDx=0;entryDy=0;endArrow=none;endFill=0;" edge="1" parent="1" source="brMMM7fyouTdi_pjjpxk-6" target="brMMM7fyouTdi_pjjpxk-20">
          <mxGeometry relative="1" as="geometry" />
        </mxCell>
        <mxCell id="brMMM7fyouTdi_pjjpxk-6" value="permission node module" style="ellipse;whiteSpace=wrap;html=1;" vertex="1" parent="1">
          <mxGeometry x="450" y="140" width="120" height="40" as="geometry" />
        </mxCell>
        <mxCell id="brMMM7fyouTdi_pjjpxk-9" value="" style="endArrow=none;html=1;rounded=0;" edge="1" parent="1" target="brMMM7fyouTdi_pjjpxk-1">
          <mxGeometry width="50" height="50" relative="1" as="geometry">
            <mxPoint x="100" y="140" as="sourcePoint" />
            <mxPoint x="150" y="90" as="targetPoint" />
          </mxGeometry>
        </mxCell>
        <mxCell id="brMMM7fyouTdi_pjjpxk-10" style="edgeStyle=none;rounded=0;orthogonalLoop=1;jettySize=auto;html=1;exitX=0.5;exitY=0;exitDx=0;exitDy=0;entryX=0.295;entryY=0.998;entryDx=0;entryDy=0;entryPerimeter=0;endArrow=none;endFill=0;" edge="1" parent="1" source="brMMM7fyouTdi_pjjpxk-4" target="brMMM7fyouTdi_pjjpxk-1">
          <mxGeometry relative="1" as="geometry" />
        </mxCell>
        <mxCell id="brMMM7fyouTdi_pjjpxk-11" style="edgeStyle=none;rounded=0;orthogonalLoop=1;jettySize=auto;html=1;exitX=0.5;exitY=0;exitDx=0;exitDy=0;entryX=0.465;entryY=0.98;entryDx=0;entryDy=0;entryPerimeter=0;endArrow=none;endFill=0;" edge="1" parent="1" source="brMMM7fyouTdi_pjjpxk-5" target="brMMM7fyouTdi_pjjpxk-1">
          <mxGeometry relative="1" as="geometry" />
        </mxCell>
        <mxCell id="brMMM7fyouTdi_pjjpxk-12" style="edgeStyle=none;rounded=0;orthogonalLoop=1;jettySize=auto;html=1;exitX=1;exitY=1;exitDx=0;exitDy=0;entryX=0.254;entryY=0.02;entryDx=0;entryDy=0;entryPerimeter=0;endArrow=none;endFill=0;" edge="1" parent="1" source="brMMM7fyouTdi_pjjpxk-1" target="brMMM7fyouTdi_pjjpxk-6">
          <mxGeometry relative="1" as="geometry" />
        </mxCell>
        <mxCell id="brMMM7fyouTdi_pjjpxk-15" style="edgeStyle=none;rounded=0;orthogonalLoop=1;jettySize=auto;html=1;exitX=0.5;exitY=0;exitDx=0;exitDy=0;entryX=0.5;entryY=1;entryDx=0;entryDy=0;endArrow=none;endFill=0;" edge="1" parent="1" source="brMMM7fyouTdi_pjjpxk-13" target="brMMM7fyouTdi_pjjpxk-3">
          <mxGeometry relative="1" as="geometry" />
        </mxCell>
        <mxCell id="brMMM7fyouTdi_pjjpxk-25" style="edgeStyle=none;rounded=0;orthogonalLoop=1;jettySize=auto;html=1;exitX=0.5;exitY=1;exitDx=0;exitDy=0;entryX=0;entryY=0;entryDx=0;entryDy=0;endArrow=none;endFill=0;" edge="1" parent="1" source="brMMM7fyouTdi_pjjpxk-13" target="brMMM7fyouTdi_pjjpxk-24">
          <mxGeometry relative="1" as="geometry" />
        </mxCell>
        <mxCell id="brMMM7fyouTdi_pjjpxk-13" value="module" style="ellipse;whiteSpace=wrap;html=1;" vertex="1" parent="1">
          <mxGeometry x="30" y="210" width="120" height="40" as="geometry" />
        </mxCell>
        <mxCell id="brMMM7fyouTdi_pjjpxk-16" style="edgeStyle=none;rounded=0;orthogonalLoop=1;jettySize=auto;html=1;entryX=1;entryY=0.5;entryDx=0;entryDy=0;endArrow=none;endFill=0;" edge="1" parent="1" source="brMMM7fyouTdi_pjjpxk-14" target="brMMM7fyouTdi_pjjpxk-13">
          <mxGeometry relative="1" as="geometry" />
        </mxCell>
        <mxCell id="brMMM7fyouTdi_pjjpxk-17" style="edgeStyle=none;rounded=0;orthogonalLoop=1;jettySize=auto;html=1;exitX=0.5;exitY=0;exitDx=0;exitDy=0;entryX=0.5;entryY=1;entryDx=0;entryDy=0;endArrow=none;endFill=0;" edge="1" parent="1" source="brMMM7fyouTdi_pjjpxk-14" target="brMMM7fyouTdi_pjjpxk-4">
          <mxGeometry relative="1" as="geometry" />
        </mxCell>
        <mxCell id="brMMM7fyouTdi_pjjpxk-22" style="edgeStyle=none;rounded=0;orthogonalLoop=1;jettySize=auto;html=1;exitX=1;exitY=0.5;exitDx=0;exitDy=0;entryX=0;entryY=0.5;entryDx=0;entryDy=0;endArrow=none;endFill=0;" edge="1" parent="1" source="brMMM7fyouTdi_pjjpxk-14" target="brMMM7fyouTdi_pjjpxk-19">
          <mxGeometry relative="1" as="geometry" />
        </mxCell>
        <mxCell id="brMMM7fyouTdi_pjjpxk-14" value="12345678910" style="ellipse;whiteSpace=wrap;html=1;fillColor=#dae8fc;strokeColor=#6c8ebf;" vertex="1" parent="1">
          <mxGeometry x="170" y="210" width="120" height="40" as="geometry" />
        </mxCell>
        <mxCell id="brMMM7fyouTdi_pjjpxk-23" style="edgeStyle=none;rounded=0;orthogonalLoop=1;jettySize=auto;html=1;exitX=1;exitY=0.5;exitDx=0;exitDy=0;entryX=0;entryY=0.5;entryDx=0;entryDy=0;endArrow=none;endFill=0;" edge="1" parent="1" source="brMMM7fyouTdi_pjjpxk-19" target="brMMM7fyouTdi_pjjpxk-20">
          <mxGeometry relative="1" as="geometry" />
        </mxCell>
        <mxCell id="brMMM7fyouTdi_pjjpxk-19" value="$!$" style="ellipse;whiteSpace=wrap;html=1;" vertex="1" parent="1">
          <mxGeometry x="310" y="210" width="120" height="40" as="geometry" />
        </mxCell>
        <mxCell id="brMMM7fyouTdi_pjjpxk-31" style="edgeStyle=none;rounded=0;orthogonalLoop=1;jettySize=auto;html=1;exitX=0.5;exitY=1;exitDx=0;exitDy=0;entryX=1;entryY=0;entryDx=0;entryDy=0;endArrow=none;endFill=0;" edge="1" parent="1" source="brMMM7fyouTdi_pjjpxk-20" target="brMMM7fyouTdi_pjjpxk-24">
          <mxGeometry relative="1" as="geometry" />
        </mxCell>
        <mxCell id="brMMM7fyouTdi_pjjpxk-20" value="article.edit" style="ellipse;whiteSpace=wrap;html=1;fillColor=#dae8fc;strokeColor=#6c8ebf;" vertex="1" parent="1">
          <mxGeometry x="450" y="210" width="120" height="40" as="geometry" />
        </mxCell>
        <mxCell id="brMMM7fyouTdi_pjjpxk-24" value="&lt;span style=&quot;font-weight: normal;&quot;&gt;&lt;font style=&quot;font-size: 10px;&quot;&gt;Result node:&lt;/font&gt;&lt;/span&gt;&lt;br&gt;module.12345678910.$!$.article.edit" style="rounded=0;whiteSpace=wrap;html=1;fontStyle=1" vertex="1" parent="1">
          <mxGeometry x="130" y="290" width="320" height="60" as="geometry" />
        </mxCell>
        <mxCell id="brMMM7fyouTdi_pjjpxk-28" style="edgeStyle=orthogonalEdgeStyle;rounded=0;orthogonalLoop=1;jettySize=auto;html=1;exitX=0.5;exitY=1;exitDx=0;exitDy=0;entryX=0.279;entryY=0.025;entryDx=0;entryDy=0;entryPerimeter=0;endArrow=none;endFill=0;" edge="1" parent="1" source="brMMM7fyouTdi_pjjpxk-14" target="brMMM7fyouTdi_pjjpxk-24">
          <mxGeometry relative="1" as="geometry" />
        </mxCell>
        <mxCell id="brMMM7fyouTdi_pjjpxk-29" style="edgeStyle=orthogonalEdgeStyle;rounded=0;orthogonalLoop=1;jettySize=auto;html=1;exitX=0.5;exitY=1;exitDx=0;exitDy=0;entryX=0.828;entryY=-0.008;entryDx=0;entryDy=0;entryPerimeter=0;endArrow=none;endFill=0;" edge="1" parent="1" source="brMMM7fyouTdi_pjjpxk-19" target="brMMM7fyouTdi_pjjpxk-24">
          <mxGeometry relative="1" as="geometry" />
        </mxCell>
        <mxCell id="brMMM7fyouTdi_pjjpxk-33" value="" style="rounded=0;whiteSpace=wrap;html=1;" vertex="1" parent="1">
          <mxGeometry x="20" y="400" width="570" height="410" as="geometry" />
        </mxCell>
        <mxCell id="brMMM7fyouTdi_pjjpxk-34" value="Building permission node (children-parent)" style="text;html=1;strokeColor=none;fillColor=none;align=center;verticalAlign=middle;whiteSpace=wrap;rounded=0;fontStyle=1" vertex="1" parent="1">
          <mxGeometry x="20" y="420" width="570" height="30" as="geometry" />
        </mxCell>
        <mxCell id="brMMM7fyouTdi_pjjpxk-36" value="article.*" style="rounded=0;whiteSpace=wrap;html=1;" vertex="1" parent="1">
          <mxGeometry x="165" y="460" width="250" height="60" as="geometry" />
        </mxCell>
        <mxCell id="brMMM7fyouTdi_pjjpxk-38" value="&lt;font size=&quot;1&quot;&gt;PREFIX(N)&lt;/font&gt;&lt;br&gt;article" style="ellipse;whiteSpace=wrap;html=1;" vertex="1" parent="1">
          <mxGeometry x="50" y="545" width="120" height="40" as="geometry" />
        </mxCell>
        <mxCell id="brMMM7fyouTdi_pjjpxk-48" style="edgeStyle=none;rounded=0;orthogonalLoop=1;jettySize=auto;html=1;exitX=0;exitY=1;exitDx=0;exitDy=0;entryX=0.5;entryY=0;entryDx=0;entryDy=0;endArrow=none;endFill=0;" edge="1" parent="1" source="brMMM7fyouTdi_pjjpxk-39" target="brMMM7fyouTdi_pjjpxk-45">
          <mxGeometry relative="1" as="geometry" />
        </mxCell>
        <mxCell id="brMMM7fyouTdi_pjjpxk-49" style="edgeStyle=none;rounded=0;orthogonalLoop=1;jettySize=auto;html=1;exitX=0.5;exitY=1;exitDx=0;exitDy=0;entryX=0.5;entryY=0;entryDx=0;entryDy=0;endArrow=none;endFill=0;" edge="1" parent="1" source="brMMM7fyouTdi_pjjpxk-39" target="brMMM7fyouTdi_pjjpxk-46">
          <mxGeometry relative="1" as="geometry" />
        </mxCell>
        <mxCell id="brMMM7fyouTdi_pjjpxk-50" style="edgeStyle=none;rounded=0;orthogonalLoop=1;jettySize=auto;html=1;exitX=1;exitY=1;exitDx=0;exitDy=0;entryX=0.5;entryY=0;entryDx=0;entryDy=0;endArrow=none;endFill=0;" edge="1" parent="1" source="brMMM7fyouTdi_pjjpxk-39" target="brMMM7fyouTdi_pjjpxk-47">
          <mxGeometry relative="1" as="geometry" />
        </mxCell>
        <mxCell id="brMMM7fyouTdi_pjjpxk-39" value="&lt;font size=&quot;1&quot;&gt;ALL PERMISSIONS CHAR&lt;/font&gt;&lt;br&gt;*" style="ellipse;whiteSpace=wrap;html=1;" vertex="1" parent="1">
          <mxGeometry x="300" y="550" width="210" height="40" as="geometry" />
        </mxCell>
        <mxCell id="brMMM7fyouTdi_pjjpxk-42" style="edgeStyle=none;rounded=0;orthogonalLoop=1;jettySize=auto;html=1;exitX=1;exitY=0;exitDx=0;exitDy=0;entryX=0.342;entryY=0.998;entryDx=0;entryDy=0;entryPerimeter=0;endArrow=none;endFill=0;" edge="1" parent="1" source="brMMM7fyouTdi_pjjpxk-38" target="brMMM7fyouTdi_pjjpxk-36">
          <mxGeometry relative="1" as="geometry" />
        </mxCell>
        <mxCell id="brMMM7fyouTdi_pjjpxk-43" style="edgeStyle=none;rounded=0;orthogonalLoop=1;jettySize=auto;html=1;exitX=0;exitY=0;exitDx=0;exitDy=0;entryX=0.602;entryY=1.001;entryDx=0;entryDy=0;entryPerimeter=0;endArrow=none;endFill=0;" edge="1" parent="1" source="brMMM7fyouTdi_pjjpxk-39" target="brMMM7fyouTdi_pjjpxk-36">
          <mxGeometry relative="1" as="geometry" />
        </mxCell>
        <mxCell id="brMMM7fyouTdi_pjjpxk-45" value="&lt;font size=&quot;1&quot;&gt;article.edit&lt;/font&gt;" style="ellipse;whiteSpace=wrap;html=1;" vertex="1" parent="1">
          <mxGeometry x="255" y="630" width="70" height="40" as="geometry" />
        </mxCell>
        <mxCell id="brMMM7fyouTdi_pjjpxk-46" value="&lt;font size=&quot;1&quot;&gt;article.create&lt;/font&gt;" style="ellipse;whiteSpace=wrap;html=1;" vertex="1" parent="1">
          <mxGeometry x="340" y="630" width="90" height="40" as="geometry" />
        </mxCell>
        <mxCell id="brMMM7fyouTdi_pjjpxk-47" value="&lt;font size=&quot;1&quot;&gt;article.categorize&lt;/font&gt;" style="ellipse;whiteSpace=wrap;html=1;" vertex="1" parent="1">
          <mxGeometry x="450" y="630" width="90" height="40" as="geometry" />
        </mxCell>
        <mxCell id="brMMM7fyouTdi_pjjpxk-53" value="&quot;article.*&quot; means user have every permissions with article permission" style="text;html=1;strokeColor=none;fillColor=none;align=center;verticalAlign=middle;whiteSpace=wrap;rounded=0;" vertex="1" parent="1">
          <mxGeometry x="85" y="700" width="400" height="30" as="geometry" />
        </mxCell>
        <mxCell id="brMMM7fyouTdi_pjjpxk-54" value="it can be combined and subcategorized, like &quot;article.edit.*&quot;" style="text;html=1;strokeColor=none;fillColor=none;align=center;verticalAlign=middle;whiteSpace=wrap;rounded=0;" vertex="1" parent="1">
          <mxGeometry x="85" y="730" width="400" height="30" as="geometry" />
        </mxCell>
      </root>
    </mxGraphModel>
  </diagram>
</mxfile>
